<svg id="main_svg" xmlns="http://www.w3.org/2000/svg" width="1024" height="480"><g id="svg_g_bezier_cells"><path d="M 820.6455253191734 2 L 829.1979464195222 61.88309987443966 L 882.8838099039947 120.62224812519143 L 1021.9999999999999 117.27492324636167 L 1022 2 L 820.6455253191734 2 Z" fill="#221155" fill-opacity="0.2"/><path d="M 574.101104211411 2 L 577.1701860225596 45.85155372612836 L 627.6068041928836 153.87991609295617 L 643.680131505861 163.97449332289503 L 661.2475264357982 161.12166106870282 L 731.6925458060695 2 L 574.101104211411 2 Z" fill="#221155" fill-opacity="0.2"/><path d="M 47.240104231569404 2 L 178.79464212119706 157.67017389658608 L 193.67681794232388 161.9562423268074 L 217.53888274209982 130.58921720565766 L 247.75947695726916 2 L 47.240104231569404 2 Z" fill="#221155" fill-opacity="0.2"/><path d="M 421.1660536638181 2 L 462.93337930299356 156.56925964389472 L 468.99096052438745 157.45720216292563 L 573.1451850866864 45.63414115050201 L 570.0913195432565 2 L 421.1660536638181 2 Z" fill="#221155" fill-opacity="0.2"/><path d="M 665.4481768845887 161.51426266604412 L 744.5487704038381 179.6389865696061 L 825.2150460551703 62.28702496025103 L 816.604936935429 2 L 736.0670055712271 2 L 665.4481768845887 161.51426266604412 Z" fill="#221155" fill-opacity="0.2"/><path d="M 221.931430646652 129.38263429630436 L 335.77861815339975 125.90426627932305 L 344.0545737457635 2 L 251.86845790898576 2 L 221.931430646652 129.38263429630436 Z" fill="#221155" fill-opacity="0.2"/><path d="M 339.67648415588195 127.56681288854976 L 358.09560096333576 179.1752863399033 L 401.0516114290628 189.4301577815163 L 459.00534767314963 157.36650888197727 L 417.0225913033148 2 L 348.06348646456445 2 L 339.67648415588195 127.56681288854976 Z" fill="#221155" fill-opacity="0.2"/><path d="M 472.7566657348749 159.2830359402429 L 517.169221388923 190.9408318433892 L 623.2940010440302 154.09770467593646 L 574.6432980243408 49.894529168340064 L 472.7566657348749 159.2830359402429 Z" fill="#221155" fill-opacity="0.2"/><path d="M 2 242.99146002754273 L 174.4735149507498 158.75399797462305 L 42.0030535275972 2 L 2 2 L 2 242.99146002754273 Z" fill="#221155" fill-opacity="0.2"/><path d="M 196.7918102433263 164.4681405501502 L 204.64996198637482 179.8831045208896 L 316.45379623394217 210.85011511157316 L 354.2169811303166 180.2077942425747 L 336.2590282900014 129.8914548606007 L 220.40276273247815 133.4312061492155 L 196.7918102433263 164.4681405501502 Z" fill="#221155" fill-opacity="0.2"/><path d="M 884.0494437850771 124.59535911816721 L 884.9191542925956 186.3156237409984 L 1022 261.3988894828044 L 1021.9999999999999 121.27608097701092 L 884.0494437850771 124.59535911816721 Z" fill="#221155" fill-opacity="0.2"/><path d="M 747.769624188165 182.01466731406143 L 758.6237203346516 201.995818445332 L 839.2469047523737 228.39806296936172 L 880.9240790688398 186.69329854683815 L 880.0326505463742 123.43178356765875 L 827.5274002009844 65.98437592984128 L 747.769624188165 182.01466731406143 Z" fill="#221155" fill-opacity="0.2"/><path d="M 518.9760564745674 194.5477518319851 L 524.523981917546 258.7257251778154 L 624.5788720411523 268.8362402253217 L 641.0693873478018 167.0582916365753 L 625.7931114153865 157.46428884033307 L 518.9760564745674 194.5477518319851 Z" fill="#221155" fill-opacity="0.2"/><path d="M 2 287.13369385215407 L 185.98678587212393 298.2740181928898 L 201.2043134309882 181.93128230602997 L 193.0517629983831 165.9388103740117 L 177.84457430926844 161.5591381986363 L 2 247.44305295400397 L 2 287.13369385215407 Z" fill="#221155" fill-opacity="0.2"/><path d="M 403.6859896188765 192.54404310347994 L 426.52580313103647 275.8922155454118 L 494.3804415852486 295.0295856720812 L 520.6158918394395 259.96150214766004 L 514.9363872440483 194.2614313217539 L 468.9714640672761 161.49708945480666 L 461.72262672781665 160.43452823573256 L 403.6859896188765 192.54404310347994 Z" fill="#221155" fill-opacity="0.2"/><path d="M 189.91649986489315 299.0718654294463 L 274.59865087578294 324.88074018624985 L 294.2476381730677 322.68064090240125 L 295.2515064660771 321.8715549534271 L 314.62133834158107 214.4931645329625 L 204.9524325998908 184.11747850727957 L 189.91649986489315 299.0718654294463 Z" fill="#221155" fill-opacity="0.2"/><path d="M 842.0151437172041 231.28671840809952 L 862.2080501379899 309.3394642062276 L 880.0733843846818 322.68183070027186 L 1021.9999999999957 267.17171188119596 L 1021.9999999999959 265.9596051215657 L 883.290345742847 189.98419238028748 L 842.0151437172041 231.28671840809952 Z" fill="#221155" fill-opacity="0.2"/><path d="M 628.3241819421221 270.73011378884985 L 645.7437153436641 308.28397121508976 L 731.7586232232512 297.29528334194544 L 755.1165351904248 203.91933410041756 L 744.1004149708027 183.63991515867824 L 662.5722122219887 164.95894072558164 L 644.9993241270167 167.81266503454071 L 628.3241819421221 270.73011378884985 Z" fill="#221155" fill-opacity="0.2"/><path d="M 299.4860084240448 320.9294614087573 L 379.3359883164801 319.896165794946 L 422.65806152175054 276.9129977071795 L 399.72538722269775 193.2259531078674 L 357.07105006736776 183.04310001670052 L 318.74993969807326 214.13814041688042 L 299.4860084240448 320.9294614087573 Z" fill="#221155" fill-opacity="0.2"/><path d="M 735.5904056223573 298.4604600727717 L 759.7576069287718 321.45077017610305 L 857.9436901136384 308.8266563447673 L 838.1304543457652 232.24147229041623 L 758.6647104744865 206.21826300978356 L 735.5904056223573 298.4604600727717 Z" fill="#221155" fill-opacity="0.2"/><path d="M 497.33845577164914 297.7530451309752 L 507.5816050062535 336.82494807440656 L 603.6690174046795 408.7796527241296 L 642.3704341954647 310.51762936933386 L 624.9170443627406 272.8907826407831 L 523.5981605034788 262.6525414254851 L 497.33845577164914 297.7530451309752 Z" fill="#221155" fill-opacity="0.2"/><path d="M 382.6993429081679 322.1938935909237 L 427.8015762242529 396.3143353628193 L 503.5553273570902 337.24032441667333 L 493.5148501706324 298.94150233081325 L 425.4757620351687 279.752110973167 L 382.6993429081679 322.1938935909237 Z" fill="#221155" fill-opacity="0.2"/><path d="M 606.6406971179807 412.1498667353033 L 618.9619936918587 478.0000000000002 L 750.5330918824417 478.00000000000017 L 757.032075636189 324.3788007985445 L 732.6776505102011 301.2103842766777 L 645.9725225648687 312.2872500372749 L 606.6406971179807 412.1498667353033 Z" fill="#221155" fill-opacity="0.2"/><path d="M 871.2004620085669 478.0000000000001 L 877.7235347972556 325.9192948359973 L 859.899895243409 312.6080671868868 L 760.995644690524 325.32451820400007 L 754.5366697512219 478.0000000000001 L 871.2004620085669 478.0000000000001 Z" fill="#221155" fill-opacity="0.2"/><path d="M 144.5057009658479 477.99999999999983 L 185.4390480533685 302.24817869000344 L 2 291.14101964929574 L 2 477.9999999999999 L 144.5057009658479 477.99999999999983 Z" fill="#221155" fill-opacity="0.2"/><path d="M 1021.9999999999998 271.4667762987289 L 881.7092936923165 326.33706079462183 L 875.2041397957966 477.99999999999994 L 1021.9999999999998 477.99999999999994 L 1021.9999999999998 271.4667762987289 Z" fill="#221155" fill-opacity="0.2"/><path d="M 297.3964659723835 325.2802322420778 L 349.8733052318212 478.0000000000001 L 411.985970589213 478.00000000000017 L 425.164538911596 399.67556590709165 L 379.05524511764617 323.9001336386669 L 297.80426542894446 324.95155883681105 L 297.3964659723835 325.2802322420778 Z" fill="#221155" fill-opacity="0.2"/><path d="M 205.44139885919043 477.99999999999994 L 271.66917684425516 328.169563366855 L 189.35202531158072 303.08147775634177 L 148.61275712267908 477.9999999999999 L 205.44139885919043 477.99999999999994 Z" fill="#221155" fill-opacity="0.2"/><path d="M 614.8925748711303 477.9999999999998 L 602.7464427917292 413.0860186439413 L 505.8486153038186 340.5244376411975 L 429.1036884086922 400.3713836163734 L 416.04219570042505 477.9999999999997 L 614.8925748711303 477.9999999999998 Z" fill="#221155" fill-opacity="0.2"/><path d="M 345.64374935650994 478.0000000000001 L 293.6785947704021 326.76935326344676 L 275.77535057809905 328.77398149848545 L 209.81473639987652 478.0000000000001 L 345.64374935650994 478.0000000000001 Z" fill="#221155" fill-opacity="0.2"/></g><g id="svg_g_edges"><path id="svg_path_edges" d="M 571.9562359106752 0 L 575.2009758563447 46.3613865026294 M 734.765199067177 0 L 662.6376766851371 162.9221096508588 M 250.28400053344313 0 L 219.38842783281387 131.46126381261593 M 418.5538873965977 0 L 461.3449412485965 158.35779313295964 M 818.3395939068407 0 L 827.3052935585671 62.77683025531452 M 346.192616394658 0 L 337.6532515042698 127.84792395590367 M 575.2009758563447 46.3613865026294 L 469.739215478906 159.58825670135104 M 575.2009758563447 46.3613865026294 L 626.0439500298613 155.2601080480715 M 177.65845509276497 159.42424386865216 L 42.931408764182514 0 M 337.6532515042698 127.84792395590367 L 219.38842783281387 131.46126381261593 M 882.021742242211 122.64356951178209 L 1024 119.22737938957151 M 827.3052935585671 62.77683025531452 L 745.4269788259505 181.89204624312532 M 827.3052935585671 62.77683025531452 L 882.021742242211 122.64356951178209 M 337.6532515042698 127.84792395590367 L 356.57646547318484 180.868825877424 M 219.38842783281387 131.46126381261593 L 194.43937463156809 164.2571507184183 M 882.021742242211 122.64356951178209 L 882.9357806637815 187.50962869708226 M 626.0439500298613 155.2601080480715 L 516.8494064367586 193.16895901263553 M 177.65845509276497 159.42424386865216 L 0 246.1940726944319 M 469.739215478906 159.58825670135104 L 461.3449412485965 158.35779313295964 M 469.739215478906 159.58825670135104 L 516.8494064367586 193.16895901263553 M 461.3449412485965 158.35779313295964 L 401.341377185111 191.55553560032124 M 177.65845509276497 159.42424386865216 L 194.43937463156809 164.2571507184183 M 203.2678726186361 181.5755969429758 L 316.913456062347 213.05272838278935 M 882.9357806637815 187.50962869708226 L 1024 264.77470692463504 M 626.0439500298613 155.2601080480715 L 643.2556573172367 166.0696252742423 M 662.6376766851371 162.9221096508588 L 745.4269788259505 181.89204624312532 M 882.9357806637815 187.50962869708226 L 839.792670540552 230.68129936942455 M 194.43937463156809 164.2571507184183 L 203.2678726186361 181.5755969429758 M 662.6376766851371 162.9221096508588 L 643.2556573172367 166.0696252742423 M 516.8494064367586 193.16895901263553 L 522.6741362510024 260.54898396201554 M 643.2556573172367 166.0696252742423 L 626.2518636886609 271.0154806075192 M 203.2678726186361 181.5755969429758 L 187.72795461585204 300.3831081439803 M 356.57646547318484 180.868825877424 L 401.341377185111 191.55553560032124 M 356.57646547318484 180.868825877424 L 316.913456062347 213.05272838278935 M 745.4269788259505 181.89204624312532 L 757.2457641829133 203.64908001345609 M 757.2457641829133 203.64908001345609 L 839.792670540552 230.68129936942455 M 401.341377185111 191.55553560032124 L 424.8955102048515 277.510437973071 M 757.2457641829133 203.64908001345609 L 733.3672928655589 299.1060253443604 M 316.913456062347 213.05272838278935 L 297.08732230776326 322.96066896333514 M 839.792670540552 230.68129936942455 L 860.4479143549803 310.52114318637973 M 522.6741362510024 260.54898396201554 L 626.2518636886609 271.0154806075192 M 522.6741362510024 260.54898396201554 L 495.15924378499955 297.3272567880789 M 424.8955102048515 277.510437973071 L 495.15924378499955 297.3272567880789 M 424.8955102048515 277.510437973071 L 380.1705344343992 321.8855338313357 M 626.2518636886609 271.0154806075192 L 644.5452948070039 310.4533282363295 M 733.3672928655589 299.1060253443604 L 644.5452948070039 310.4533282363295 M 495.15924378499955 297.3272567880789 L 505.8240107713828 338.00739636845094 M 860.4479143549803 310.52114318637973 L 759.0686813628682 323.55581099175754 M 733.3672928655589 299.1060253443604 L 759.0686813628682 323.55581099175754 M 187.72795461585204 300.3831081439803 L 0 289.0162575719124 M 1024 268.53700717719613 L 879.7669830813028 324.94920211384994 M 380.1705344343992 321.8855338313357 L 297.08732230776326 322.96066896333514 M 380.1705344343992 321.8855338313357 L 427.2604645051711 399.2725313973412 M 187.88928867796028 300.54484980321814 L 274.41070234084077 326.914283058636 M 860.4479143549803 310.52114318637973 L 879.7669830813028 324.94920211384994 M 759.0686813628682 323.55581099175754 L 752.4502703101109 480 M 187.72795461585204 300.3831081439803 L 187.88928867796028 300.54484980321814 M 187.88928867796028 300.54484980321814 L 146.0934205333483 480 M 644.5452948070039 310.4533282363295 L 604.5690062212828 411.9522222918951 M 505.8240107713828 338.00739636845094 L 427.2604645051711 399.2725313973412 M 505.8240107713828 338.00739636845094 L 604.5690062212828 411.9522222918951 M 879.7669830813028 324.94920211384994 L 873.1165165447035 480 M 274.41070234084077 326.914283058636 L 206.74403125517227 480 M 274.41070234084077 326.914283058636 L 295.0491172873951 324.6033974513172 M 297.08732230776326 322.96066896333514 L 295.0491172873951 324.6033974513172 M 295.0491172873951 324.6033974513172 L 348.4457577690392 480 M 427.2604645051711 399.2725313973412 L 413.67757082972867 480 M 604.5690062212828 411.9522222918951 L 617.3015066547233 480 M 206.74403125517227 480 L 348.4457577690392 480 M 413.67757082972867 480 L 617.3015066547233 480 M 146.0934205333483 480 L 206.74403125517227 480 M 348.4457577690392 480 L 413.67757082972867 480 M 873.1165165447035 480 L 1024 480 M 1024 480 L 1024 268.53700717719613 M 0 289.0162575719124 L 0 480 M 0 480 L 146.0934205333483 480 M 752.4502703101109 480 L 873.1165165447035 480 M 617.3015066547233 480 L 752.4502703101109 480 M 1024 268.53700717719613 L 1024 264.77470692463504 M 0 246.1940726944319 L 0 289.0162575719124 M 1024 264.77470692463504 L 1024 119.22737938957151 M 42.931408764182514 0 L 0 0 M 0 0 L 0 246.1940726944319 M 418.5538873965977 0 L 346.192616394658 0 M 346.192616394658 0 L 250.28400053344313 0 M 818.3395939068407 0 L 734.765199067177 0 M 571.9562359106752 0 L 418.5538873965977 0 M 250.28400053344313 0 L 42.931408764182514 0 M 734.765199067177 0 L 571.9562359106752 0 M 1024 119.22737938957151 L 1024 0 M 1024 0 L 818.3395939068407 0 " stroke="black" stroke-width="2"/></g><g id="svg_g_seeds"><circle id="c_0" cx="468.62807366876984" cy="234.0833320672674" r="3" stroke="black" stroke-width="2" fill="#1F7BFD"/><circle id="c_1" cx="278.51309720989946" cy="155.6933511479691" r="3" stroke="black" stroke-width="2" fill="#1F7BFD"/><circle id="c_2" cx="692.7859177184592" cy="244.8723977728464" r="3" stroke="black" stroke-width="2" fill="#1F7BFD"/><circle id="c_3" cx="138.1187042678888" cy="227.26279793394036" r="3" stroke="black" stroke-width="2" fill="#1F7BFD"/><circle id="c_4" cx="725.4600676981607" cy="102.2746583599197" r="3" stroke="black" stroke-width="2" fill="#1F7BFD"/><circle id="c_5" cx="365.13394497827926" cy="262.44372113927903" r="3" stroke="black" stroke-width="2" fill="#1F7BFD"/><circle id="c_6" cx="254.4746837305969" cy="242.4820577408811" r="3" stroke="black" stroke-width="2" fill="#1F7BFD"/><circle id="c_7" cx="807" cy="366" r="3" stroke="black" stroke-width="2" fill="#1F7BFD"/><circle id="c_8" cx="439.49242385062837" cy="337.38848692673395" r="3" stroke="black" stroke-width="2" fill="#1F7BFD"/><circle id="c_9" cx="401.0597407472177" cy="111.95632909086613" r="3" stroke="black" stroke-width="2" fill="#1F7BFD"/><circle id="c_10" cx="898.470240733344" cy="243.52199543791446" r="3" stroke="black" stroke-width="2" fill="#1F7BFD"/><circle id="c_11" cx="563.320548225543" cy="304.925518351854" r="3" stroke="black" stroke-width="2" fill="#1F7BFD"/><circle id="c_12" cx="826.9131458478727" cy="172.012239696169" r="3" stroke="black" stroke-width="2" fill="#1F7BFD"/><circle id="c_13" cx="938.4995062157049" cy="170.43985774510807" r="3" stroke="black" stroke-width="2" fill="#1F7BFD"/><circle id="c_14" cx="707.7238163934404" cy="361.8000958998701" r="3" stroke="black" stroke-width="2" fill="#1F7BFD"/><circle id="c_15" cx="180.25772183858805" cy="80.94682593618968" r="3" stroke="black" stroke-width="2" fill="#1F7BFD"/><circle id="c_16" cx="539.7977816759883" cy="134.23972237873534" r="3" stroke="black" stroke-width="2" fill="#1F7BFD"/><circle id="c_17" cx="936.1353919199822" cy="72.18630134474489" r="3" stroke="black" stroke-width="2" fill="#1F7BFD"/><circle id="c_18" cx="129.6586714694114" cy="366.9835273630652" r="3" stroke="black" stroke-width="2" fill="#1F7BFD"/><circle id="c_19" cx="490.2596967592177" cy="402.4900653706981" r="3" stroke="black" stroke-width="2" fill="#1F7BFD"/><circle id="c_20" cx="794.7041649599736" cy="270.36715810731135" r="3" stroke="black" stroke-width="2" fill="#1F7BFD"/><circle id="c_21" cx="210.77224777830645" cy="385.87522446079106" r="3" stroke="black" stroke-width="2" fill="#1F7BFD"/><circle id="c_22" cx="571.3766722326684" cy="225.2011325448343" r="3" stroke="black" stroke-width="2" fill="#1F7BFD"/><circle id="c_23" cx="948.751663778218" cy="372.0800376993643" r="3" stroke="black" stroke-width="2" fill="#1F7BFD"/><circle id="c_24" cx="99.84631564938968" cy="148.90130377535866" r="3" stroke="black" stroke-width="2" fill="#1F7BFD"/><circle id="c_25" cx="276.92347358443646" cy="103.66487742991212" r="3" stroke="black" stroke-width="2" fill="#1F7BFD"/><circle id="c_26" cx="665.3041367550626" cy="75.64292455283237" r="3" stroke="black" stroke-width="2" fill="#1F7BFD"/><circle id="c_27" cx="490.0549527507395" cy="87.90826152140127" r="3" stroke="black" stroke-width="2" fill="#1F7BFD"/><circle id="c_28" cx="366.6771314957465" cy="381.6965377998748" r="3" stroke="black" stroke-width="2" fill="#1F7BFD"/><circle id="c_29" cx="273.6420359358873" cy="413.66481425063506" r="3" stroke="black" stroke-width="2" fill="#1F7BFD"/></g></svg>