<svg width="193" height="208" viewBox="0 0 193 208" fill="none" xmlns="http://www.w3.org/2000/svg">
<path d="M193 208H0V0H193V208ZM97.4102 141.134C90.2307 141.134 84.4104 146.954 84.4102 154.134C84.4102 161.313 90.2306 167.134 97.4102 167.134C104.59 167.134 110.41 161.313 110.41 154.134C110.41 146.954 104.59 141.134 97.4102 141.134ZM96.3789 38C76.8397 38 61 53.8397 61 73.3789V83.3789H81V73.3789C81 64.8854 87.8854 58 96.3789 58H97.8652C105.671 58 112 64.3286 112 72.1348C112 75.918 110.483 79.5431 107.789 82.1992L100.607 89.2793C91.5813 98.1783 86.5 110.325 86.5 123V133H106.5V123C106.5 115.678 109.436 108.662 114.649 103.521L121.83 96.4414C128.336 90.0267 132 81.2716 132 72.1348C132 53.2829 116.717 38 97.8652 38H96.3789Z" fill="#F50000"/>
</svg>
